<svg xmlns="http://www.w3.org/2000/svg" viewBox="0 0 124.82 116.14"><defs><style>.cls-1,.cls-2,.cls-3{fill:#282870;}.cls-1{opacity:0.95;}.cls-2{opacity:0.7;}.cls-3,.cls-5{opacity:0.8;}.cls-4,.cls-5,.cls-6{fill:#ff5236;}.cls-4{opacity:0.85;}.cls-6{opacity:0.5;}</style></defs><title>Asset 8</title><g id="Layer_2" data-name="Layer 2"><g id="Camada_1" data-name="Camada 1"><polygon class="cls-1" points="124.82 77.42 77.42 116.14 77.42 38.71 124.82 0 124.82 77.42"/><polygon class="cls-2" points="77.42 38.71 0 38.71 47.4 0 124.82 0 77.42 38.71"/><polygon class="cls-2" points="47.4 77.42 0 116.14 0 38.71 47.4 0 47.4 77.42"/><polygon class="cls-3" points="77.42 116.14 0 116.14 47.4 77.42 124.82 77.42 77.42 116.14"/><rect class="cls-4" y="5.3" width="77.42" height="20.77"/><circle class="cls-5" cx="23.09" cy="64.49" r="6.42"/><rect class="cls-6" x="13.26" y="68.13" width="19.67" height="30.73" rx="9.83"/><rect class="cls-5" x="15.92" y="91.8" width="5.33" height="15.16" rx="2.38"/><rect class="cls-5" x="24.93" y="91.8" width="5.33" height="15.16" rx="2.38"/><circle class="cls-5" cx="62.41" cy="52.01" r="6.42"/><rect class="cls-6" x="52.58" y="55.66" width="19.67" height="30.73" rx="9.83"/><rect class="cls-5" x="55.24" y="79.33" width="5.33" height="15.16" rx="2.38"/><rect class="cls-5" x="64.25" y="79.33" width="5.33" height="15.16" rx="2.38"/></g></g></svg>