<svg xmlns="http://www.w3.org/2000/svg" viewBox="0 0 122.56 115.99"><defs><style>.cls-1{fill:#282870;}.cls-2{fill:none;stroke:#fff;stroke-linecap:round;stroke-linejoin:round;stroke-width:4px;}.cls-3{fill:#fff;}.cls-4{fill:#ff5236;opacity:0.7;}</style></defs><title>Asset 10</title><g id="Layer_2" data-name="Layer 2"><g id="Camada_1" data-name="Camada 1"><rect class="cls-1" x="9.5" y="12.84" width="113.05" height="73.74"/><line class="cls-2" x1="100.32" y1="27.86" x2="100.32" y2="72.17"/><path class="cls-3" d="M112.5,28.05a3.13,3.13,0,0,1,0,.43,2.84,2.84,0,0,1-.13.38,2.35,2.35,0,0,1-.19.39,4.28,4.28,0,0,1-.29.33,2.17,2.17,0,0,1-1.5.62,1.89,1.89,0,0,1-.84-.17,2.17,2.17,0,0,1-.69-.45,1.87,1.87,0,0,1-.26-.33,2.42,2.42,0,0,1-.21-.39,1.82,1.82,0,0,1-.11-.38,1.71,1.71,0,0,1,0-.84,1.76,1.76,0,0,1,.11-.41,2.22,2.22,0,0,1,.21-.37,1,1,0,0,1,.26-.32,1.7,1.7,0,0,1,.69-.47,2.22,2.22,0,0,1,.84-.18,2.07,2.07,0,0,1,1.5.65,1.5,1.5,0,0,1,.29.32,2.15,2.15,0,0,1,.19.37,2.46,2.46,0,0,1,.13.41A2.85,2.85,0,0,1,112.5,28.05Z"/><line class="cls-2" x1="110.35" y1="37.49" x2="110.35" y2="49.26"/><circle class="cls-4" cx="42.6" cy="27.81" r="27.81"/><path class="cls-4" d="M42.6,43.61h0A42.73,42.73,0,0,0,0,86.21V116H85.2V86.21A42.73,42.73,0,0,0,42.6,43.61Z"/></g></g></svg>