<svg xmlns="http://www.w3.org/2000/svg" width="142.91" height="59.126" viewBox="0 0 142.91 59.126"><defs><style>.a{fill:#292970;}</style></defs><path class="a" d="M383.051,200.462c-9.866,0-16.756,7.193-16.756,17.491,0,9.415,6.529,15.5,16.633,15.5,9.362,0,16.7-7.019,16.7-15.98C399.623,207.3,392.964,200.462,383.051,200.462Zm-.061,4.3c4.378,0,7.1,4.662,7.1,12.167,0,7.128-3.044,12.106-7.4,12.106-4.858,0-7.22-3.861-7.22-11.8C375.463,209.07,378.066,204.759,382.99,204.759Z" transform="translate(-331.895 -189.368)"/><path class="a" d="M487.367,203.628a14.085,14.085,0,0,0-4.338-5.226,13.069,13.069,0,0,0-6.341-2.09,98.3,98.3,0,0,0-10.862-.089q-5.627.1-11.255.085-3.6-.009-7.209-.013V185.967c0-.044.013-.086.013-.13s-.01-.087-.013-.13c0,0,0-.043,0-.043a1.755,1.755,0,0,0-1.766-1.55c-1.16,0-1.711,1.047-2.06,1.983a16.545,16.545,0,0,1-5.1,7.408q-.375.3-.769.563a12.93,12.93,0,0,1-4.7,2c-.5.1-5.07.595-5.07.227,0,0,0-10.631-.018-10.631a1.755,1.755,0,0,0-1.766-1.55c-.975,0-1.466.7-1.785,1.519a23.418,23.418,0,0,1-.946,2.2,19.988,19.988,0,0,1-4.8,6.056,10.625,10.625,0,0,1-2.149,1.408,12.679,12.679,0,0,1-1.538.678,5.745,5.745,0,0,1-.767.206,1.57,1.57,0,0,0-.646.149c-.215.161-.182.486-.1.738a4.387,4.387,0,0,0,1.966,2.206,7.8,7.8,0,0,0,1.915.829,5.858,5.858,0,0,0,1.588.244V218.2c0,2.85.8,5.8,3.1,7.7,3.733,3.1,10.866,3.45,13.285-1.482.2-.4.91-1.848.38-2.191a.33.33,0,0,0-.072-.035.518.518,0,0,0-.3.007c-.533.155-.894.614-1.36.882a4.268,4.268,0,0,1-1.561.5,3.964,3.964,0,0,1-3.036-.835,5.055,5.055,0,0,1-1.386-4.006V200.351h10.34v17.857c0,2.85.8,5.8,3.1,7.7,3.733,3.1,10.865,3.45,13.284-1.482.2-.4.91-1.848.381-2.191a.323.323,0,0,0-.073-.035.516.516,0,0,0-.3.007c-.533.155-.894.614-1.361.882a4.255,4.255,0,0,1-1.561.5,3.965,3.965,0,0,1-3.036-.835,5.057,5.057,0,0,1-1.385-4.006V200.376h.091c6.019.047,12.033.056,18.051-.075,2.284-.05,4.568-.065,6.853-.067a6.276,6.276,0,0,1,6.768,5.192,21.184,21.184,0,0,1,.774,6.246c0,7.128-3.045,12.106-7.4,12.106-4.858,0-7.219-3.861-7.219-11.8a25.862,25.862,0,0,1,.582-5.835,1.06,1.06,0,0,0-.966-1.286c-4.6-.4-7.2,3.143-7.223,7.75v.1c0,9.415,4.968,15.5,15.072,15.5,9.361,0,16.7-7.02,16.7-15.98A19.032,19.032,0,0,0,487.367,203.628Z" transform="translate(-346.436 -184.114)"/><g transform="translate(0 11.186)"><path class="a" d="M316.49,220.344l.038,3.12v-2.446A6.386,6.386,0,0,0,316.49,220.344Z" transform="translate(-316.49 -206.943)"/><path class="a" d="M316.544,217.118v29.508a1.913,1.913,0,0,0,2.384,1.849,8.98,8.98,0,0,0,6.723-8.638v-7.4a14.343,14.343,0,0,0,5.744,1.18c9.143,0,15.527-7.366,15.527-17.914,0-4.589-1.533-9.33-5.329-12.236-3.5-2.678-8.384-3.315-12.66-2.584a15.436,15.436,0,0,0-9.052,5.306C317.2,209.37,316.494,213.073,316.544,217.118Zm13.683,11.714h-.053a4.5,4.5,0,0,1-4.523-4.465v-13.22a5.706,5.706,0,0,1,5.153-5.722q.259-.021.529-.021c2.421,0,6.481,1.455,6.481,11.2C337.815,224.261,334.978,228.832,330.227,228.832Z" transform="translate(-316.506 -200.597)"/></g></svg>